PathFileType	4	(X/Y/Z)	S240501-1155_P07_T01_0-394.trc
DataRate	CameraRate	NumFrames	NumMarkers	Units	OrigDataRate	OrigDataStartFrame	OrigNumFrames
60.0	60.0	15	13	m	60.0	147	394
Frame#	Time	Nose			LEye			LEar			LShoulder			LElbow			LWrist			LHip			REye			REar			RShoulder			RElbow			RWrist			RHip		
		X1	Y1	Z1	X2	Y2	Z2	X3	Y3	Z3	X4	Y4	Z4	X5	Y5	Z5	X6	Y6	Z6	X7	Y7	Z7	X8	Y8	Z8	X9	Y9	Z9	X10	Y10	Z10	X11	Y11	Z11	X12	Y12	Z12	X13	Y13	Z13

148	2.467	-0.06719	1.68212	0.15997	-0.09140	1.64745	0.18545	-0.05796	1.59130	0.27811	0.11151	1.51374	0.24548	0.25896	1.53333	0.05630	0.31191	1.60089	-0.16565	0.53366	1.60220	0.21426	-0.09400	1.71201	0.18525	-0.06573	1.75322	0.28546	0.10528	1.83938	0.32086	0.33062	1.92851	0.26769	0.32294	1.90034	0.03802	0.52496	1.81811	0.21622
149	2.483	-0.06711	1.68224	0.15927	-0.09090	1.64760	0.18486	-0.05799	1.59231	0.27729	0.11166	1.51396	0.24508	0.25859	1.53391	0.05516	0.31261	1.60037	-0.16680	0.53366	1.60220	0.21426	-0.09358	1.71270	0.18430	-0.06583	1.75413	0.28478	0.10527	1.83941	0.32024	0.33046	1.92851	0.26722	0.32277	1.90171	0.03950	0.52496	1.81811	0.21622
150	2.500	-0.06703	1.68244	0.15864	-0.09045	1.64761	0.18426	-0.05800	1.59314	0.27617	0.11174	1.51443	0.24483	0.25847	1.53438	0.05391	0.31324	1.59991	-0.16786	0.53366	1.60220	0.21426	-0.09306	1.71324	0.18352	-0.06585	1.75546	0.28417	0.10539	1.83935	0.31950	0.33035	1.92867	0.26666	0.32261	1.90322	0.04143	0.52496	1.81811	0.21622
151	2.517	-0.06693	1.68281	0.15802	-0.09014	1.64762	0.18349	-0.05801	1.59385	0.27470	0.11173	1.51506	0.24462	0.25851	1.53482	0.05260	0.31374	1.59951	-0.16889	0.53366	1.60220	0.21426	-0.09248	1.71366	0.18290	-0.06577	1.75697	0.28366	0.10561	1.83933	0.31867	0.33043	1.92903	0.26619	0.32255	1.90439	0.04365	0.52496	1.81811	0.21622
152	2.533	-0.06677	1.68337	0.15740	-0.08997	1.64783	0.18254	-0.05805	1.59448	0.27296	0.11166	1.51571	0.24428	0.25858	1.53530	0.05137	0.31407	1.59916	-0.16984	0.53366	1.60220	0.21426	-0.09192	1.71405	0.18239	-0.06566	1.75839	0.28321	0.10588	1.83951	0.31772	0.33074	1.92961	0.26592	0.32259	1.90495	0.04568	0.52496	1.81811	0.21622
153	2.550	-0.06653	1.68404	0.15678	-0.08987	1.64836	0.18152	-0.05816	1.59506	0.27126	0.11154	1.51625	0.24382	0.25863	1.53587	0.05036	0.31420	1.59884	-0.17069	0.53366	1.60220	0.21426	-0.09142	1.71445	0.18191	-0.06551	1.75954	0.28278	0.10614	1.83995	0.31672	0.33119	1.93033	0.26583	0.32272	1.90489	0.04718	0.52496	1.81811	0.21622
154	2.567	-0.06619	1.68477	0.15621	-0.08978	1.64918	0.18060	-0.05830	1.59556	0.26999	0.11137	1.51663	0.24341	0.25863	1.53656	0.04979	0.31420	1.59859	-0.17139	0.53366	1.60220	0.21426	-0.09103	1.71488	0.18140	-0.06530	1.76040	0.28233	0.10630	1.84052	0.31584	0.33163	1.93105	0.26584	0.32293	1.90437	0.04809	0.52496	1.81811	0.21622
155	2.583	-0.06574	1.68550	0.15571	-0.08964	1.65014	0.17987	-0.05846	1.59588	0.26935	0.11117	1.51688	0.24325	0.25850	1.53733	0.04971	0.31417	1.59841	-0.17193	0.53366	1.60220	0.21426	-0.09070	1.71534	0.18083	-0.06500	1.76097	0.28188	0.10630	1.84107	0.31522	0.33193	1.93166	0.26590	0.32319	1.90365	0.04859	0.52496	1.81811	0.21622
156	2.600	-0.06519	1.68625	0.15533	-0.08949	1.65109	0.17936	-0.05862	1.59598	0.26933	0.11096	1.51703	0.24335	0.25817	1.53809	0.04999	0.31414	1.59829	-0.17229	0.53366	1.60220	0.21426	-0.09037	1.71582	0.18020	-0.06465	1.76129	0.28145	0.10619	1.84146	0.31489	0.33207	1.93208	0.26601	0.32340	1.90300	0.04880	0.52496	1.81811	0.21622
157	2.617	-0.06459	1.68701	0.15506	-0.08936	1.65188	0.17914	-0.05880	1.59593	0.26979	0.11079	1.51709	0.24363	0.25768	1.53873	0.05038	0.31406	1.59824	-0.17251	0.53366	1.60220	0.21426	-0.09005	1.71624	0.17955	-0.06434	1.76140	0.28106	0.10609	1.84165	0.31482	0.33209	1.93227	0.26614	0.32353	1.90259	0.04874	0.52496	1.81811	0.21622
158	2.633	-0.06397	1.68772	0.15487	-0.08927	1.65242	0.17925	-0.05903	1.59591	0.27042	0.11068	1.51707	0.24399	0.25716	1.53921	0.05071	0.31390	1.59827	-0.17261	0.53366	1.60220	0.21426	-0.08978	1.71657	0.17896	-0.06411	1.76132	0.28077	0.10608	1.84167	0.31490	0.33209	1.93227	0.26627	0.32358	1.90240	0.04842	0.52496	1.81811	0.21622
159	2.650	-0.06341	1.68829	0.15472	-0.08922	1.65266	0.17962	-0.05928	1.59605	0.27084	0.11067	1.51702	0.24429	0.25671	1.53957	0.05082	0.31366	1.59840	-0.17266	0.53366	1.60220	0.21426	-0.08958	1.71678	0.17847	-0.06395	1.76105	0.28067	0.10617	1.84158	0.31499	0.33212	1.93213	0.26639	0.32359	1.90240	0.04794	0.52496	1.81811	0.21622
160	2.667	-0.06296	1.68867	0.15458	-0.08920	1.65265	0.18007	-0.05952	1.59631	0.27072	0.11072	1.51701	0.24441	0.25638	1.53991	0.05072	0.31338	1.59865	-0.17267	0.53366	1.60220	0.21426	-0.08942	1.71689	0.17808	-0.06383	1.76062	0.28078	0.10636	1.84141	0.31500	0.33217	1.93196	0.26644	0.32361	1.90252	0.04743	0.52496	1.81811	0.21622
161	2.683	-0.06267	1.68896	0.15436	-0.08915	1.65248	0.18040	-0.05966	1.59656	0.26995	0.11080	1.51709	0.24435	0.25619	1.54031	0.05049	0.31309	1.59902	-0.17261	0.53366	1.60220	0.21426	-0.08925	1.71697	0.17779	-0.06373	1.76012	0.28109	0.10661	1.84126	0.31485	0.33215	1.93177	0.26638	0.32368	1.90268	0.04700	0.52496	1.81811	0.21622
162	2.700	-0.06252	1.68924	0.15404	-0.08899	1.65224	0.18056	-0.05969	1.59669	0.26871	0.11088	1.51729	0.24419	0.25612	1.54076	0.05025	0.31288	1.59952	-0.17238	0.53366	1.60220	0.21426	-0.08901	1.71707	0.17761	-0.06364	1.75967	0.28152	0.10690	1.84119	0.31461	0.33202	1.93151	0.26623	0.32379	1.90274	0.04665	0.52496	1.81811	0.21622
